<?xml version="1.0" encoding="UTF-8" standalone="no"?>
<!-- Created with Inkscape (http://www.inkscape.org/) -->

<svg
   xmlns:dc="http://purl.org/dc/elements/1.1/"
   xmlns:cc="http://creativecommons.org/ns#"
   xmlns:rdf="http://www.w3.org/1999/02/22-rdf-syntax-ns#"
   xmlns:svg="http://www.w3.org/2000/svg"
   xmlns="http://www.w3.org/2000/svg"
   xmlns:sodipodi="http://sodipodi.sourceforge.net/DTD/sodipodi-0.dtd"
   xmlns:inkscape="http://www.inkscape.org/namespaces/inkscape"
   width="240"
   height="240"
   viewBox="0 0 63.499999 63.500002"
   version="1.1"
   id="svg4506"
   inkscape:version="0.92.1 r15371"
   sodipodi:docname="240px.svg">
  <defs
     id="defs4500" />
  <sodipodi:namedview
     id="base"
     pagecolor="#ffffff"
     bordercolor="#666666"
     borderopacity="1.0"
     inkscape:pageopacity="0.0"
     inkscape:pageshadow="2"
     inkscape:zoom="3.4375"
     inkscape:cx="120"
     inkscape:cy="121.3818"
     inkscape:document-units="mm"
     inkscape:current-layer="layer1"
     showgrid="false"
     units="px"
     inkscape:window-width="1918"
     inkscape:window-height="1002"
     inkscape:window-x="0"
     inkscape:window-y="26"
     inkscape:window-maximized="1" />
  <metadata
     id="metadata4503">
    <rdf:RDF>
      <cc:Work
         rdf:about="">
        <dc:format>image/svg+xml</dc:format>
        <dc:type
           rdf:resource="http://purl.org/dc/dcmitype/StillImage" />
        <dc:title></dc:title>
      </cc:Work>
    </rdf:RDF>
  </metadata>
  <g
     inkscape:label="Layer 1"
     inkscape:groupmode="layer"
     id="layer1"
     transform="translate(0,-233.49998)">
    <path
       style="opacity:1;fill:#000000;stroke-width:0.16306135"
       d="m 32.248076,238.62736 c -7.725499,0 -14.541899,4.47649 -17.580841,11.54491 -0.647259,1.50553 -1.244144,3.63797 -1.409441,5.0381 -0.09723,0.82356 -0.127504,0.86523 -1.097362,1.49556 -6.8086008,4.42494 -10.0932863,12.81783 -8.0868842,20.66279 0.8120372,3.17505 2.3430808,5.9094 4.7133903,8.41554 5.5866409,5.90674 13.9951589,7.57457 21.5926829,4.28362 l 1.279873,-0.55462 0.758436,0.37527 c 1.813464,0.89713 4.135723,1.61031 6.138639,1.88504 1.473775,0.20215 4.73753,0.08 6.19473,-0.23225 6.747051,-1.44563 12.107013,-6.18315 14.298204,-12.63756 1.686251,-4.96697 1.120447,-10.96994 -1.452095,-15.409 -1.339728,-2.31175 -3.682915,-4.9146 -5.628271,-6.25083 -0.678218,-0.4659 -0.775039,-0.60379 -0.775039,-1.10999 0,-1.83052 -1.200252,-5.73084 -2.401727,-7.80406 -3.497421,-6.03491 -9.750949,-9.70252 -16.544295,-9.70252 z m 0.03088,2.73434 c 1.838522,0.004 2.470631,0.0733 3.832495,0.4282 3.790299,0.98786 6.945065,3.10113 9.242723,6.18998 1.400009,1.88208 2.478031,4.30983 2.87892,6.48311 l 0.13897,0.75292 -1.320157,-0.44875 c -3.485772,-1.18389 -7.539275,-1.29025 -11.177531,-0.2939 -0.668129,0.18297 -1.847619,0.60693 -2.621374,0.94253 l -1.407071,0.6107 -1.046803,-0.52696 c -3.89325,-1.95721 -8.906412,-2.4063 -13.332765,-1.19455 -0.658221,0.18016 -1.240765,0.28323 -1.294886,0.22911 -0.18005,-0.18003 0.613258,-2.59695 1.340705,-4.08452 1.787961,-3.65619 5.17089,-6.73418 8.872182,-8.07346 2.233035,-0.80799 3.45417,-1.01899 5.894516,-1.01441 z m -11.037691,17.377 h 21.017523 v 3.93995 l -8.274915,-0.33023 0.626498,21.00171 h -5.720704 l 0.626515,-21.00171 -8.274917,0.31364 z m -8.218027,0.59806 c 0.06665,0 0.213455,0.60221 0.326282,1.33914 0.726805,4.7478 3.535765,9.38204 7.449318,12.28912 l 1.157413,0.85957 0.101968,1.19453 c 0.463325,4.76852 3.474488,9.40478 6.796738,12.74026 0,0.14998 -1.992553,0.75667 -3.318963,1.01046 -2.769639,0.52992 -6.240505,0.19203 -8.993862,-0.87458 -4.038428,-1.56444 -7.4827532,-4.96691 -9.1297436,-9.01993 -2.169711,-5.33938 -1.3491279,-11.60634 2.1070604,-16.09793 0.7170202,-0.93179 3.2719812,-3.44064 3.5038422,-3.44064 z m 38.129075,0.57043 1.373086,1.38573 c 2.277784,2.29888 3.578022,4.59732 4.387108,7.75664 0.438696,1.71296 0.52986,5.2033 0.17855,6.83783 -0.561476,2.6125 -1.568499,4.83908 -3.119876,6.89787 -2.365402,3.13917 -6.016823,5.39069 -9.951397,6.13705 v -8.1e-4 c -1.628751,0.3096 -4.548063,0.3085 -6.114927,-10e-4 -0.627799,-0.12429 -1.700974,-0.4198 -2.384343,-0.6573 l -1.241959,-0.43215 c 3.826105,-3.7838 6.408125,-7.53768 7.333967,-13.57374 l 1.152676,-0.73396 c 1.50646,-0.95928 4.094214,-3.51259 5.122641,-5.0547 1.550873,-2.32544 2.623008,-4.9158 3.059046,-7.39164 z"
       id="path4577-1-9"
       inkscape:connector-curvature="0" />
  </g>
</svg>
